<svg width="229" height="207" viewBox="0 0 229 207" fill="none" xmlns="http://www.w3.org/2000/svg">
<path d="M197.779 52.0089C196.206 51.8123 192.868 51.3155 191.478 51.2741C190.885 51.2741 190.885 52.04 191.409 52.1745C191.409 52.2987 196.89 52.9611 197.551 53.0542C198.212 53.1474 198.531 52.1124 197.779 52.0089ZM193.779 91.5873C193.859 90.3039 193.927 89.0309 193.984 87.7578C194.734 87.6559 195.421 87.319 195.926 86.8054C196.431 86.2918 196.722 85.634 196.749 84.9458C196.776 84.2576 196.538 83.5826 196.074 83.0376C195.611 82.4926 194.952 82.112 194.212 81.9618C194.44 75.5655 194.736 68.2895 194.885 61.8621C194.885 61.5102 194.292 61.4688 194.281 61.8621C194.133 68.0721 193.779 75.5448 193.586 81.9101C189.347 81.7134 188.959 87.8096 193.403 87.9338C193.403 89.1551 193.346 90.366 193.346 91.5873C193.346 91.8046 193.779 91.8461 193.779 91.5873ZM166.512 34.4863C166.74 34.8175 166.842 34.7969 167.173 34.5692C168.566 33.753 169.898 32.854 171.161 31.8781C171.469 31.609 170.956 31.2054 170.637 31.4848C169.611 32.3562 168.501 33.1425 167.321 33.8343C167.594 32.3749 167.982 28.711 167.537 27.2517C167.527 27.2136 167.503 27.1797 167.469 27.1555C167.435 27.1313 167.393 27.1181 167.349 27.1181C167.306 27.1181 167.264 27.1313 167.23 27.1555C167.196 27.1797 167.172 27.2136 167.161 27.2517C166.911 29.6529 167.093 31.1329 166.626 33.8239L163.823 30.8845C163.629 30.6775 163.219 30.8845 163.413 31.1329C164.142 31.9713 166.102 33.8343 166.512 34.4863ZM192.674 41.8762C194.46 41.5946 196.108 40.8257 197.401 39.672C198.693 38.5183 199.568 37.0344 199.91 35.4179C200.281 33.6708 200.014 31.8614 199.15 30.2648C198.285 28.6682 196.87 27.3718 195.12 26.5728C193.369 25.7738 191.38 25.5159 189.453 25.8383C187.527 26.1608 185.769 27.0459 184.447 28.3591C178.761 33.8032 183.969 43.2838 192.674 41.8762ZM184.333 29.301C185.359 28.0508 186.787 27.1205 188.42 26.6386C190.053 26.1566 191.81 26.1466 193.449 26.61C195.173 27.1328 196.672 28.1366 197.732 29.4783C198.792 30.8201 199.359 32.4314 199.351 34.0827C199.27 35.7174 198.62 37.2867 197.497 38.5658C196.373 39.8449 194.832 40.7682 193.096 41.2035C191.423 41.5907 189.66 41.4977 188.047 40.9374C186.435 40.377 185.054 39.3767 184.094 38.0742C183.133 36.7716 182.64 35.2307 182.683 33.6634C182.726 32.096 183.302 30.5793 184.333 29.3217V29.301ZM34.8466 32.3646C42.2417 33.6583 49.6597 34.6105 57.1118 35.6455C59.5844 35.9974 62.1254 36.4321 64.6323 36.6805C64.7878 36.6981 64.9448 36.659 65.0686 36.5717C65.1925 36.4844 65.2732 36.3561 65.2931 36.2148C65.3127 36.075 65.2711 35.9339 65.1774 35.8217C65.0837 35.7094 64.9452 35.635 64.7918 35.6145C62.3191 35.1384 59.7667 34.9003 57.2713 34.5795C49.8762 33.5445 42.4582 32.406 34.9606 31.5573C34.8998 31.5531 34.8387 31.56 34.7809 31.5776C34.7231 31.5952 34.6697 31.6232 34.624 31.6599C34.5784 31.6965 34.5412 31.7412 34.5149 31.7911C34.4885 31.841 34.4735 31.8953 34.4706 31.9506C34.4711 32.0484 34.5089 32.143 34.5774 32.2185C34.6459 32.2939 34.741 32.3455 34.8466 32.3646ZM143.916 45.9438C147.198 46.6269 176.665 51.6363 177.975 51.6673C178.533 51.6673 178.909 50.9325 178.271 50.7255C177.052 50.3322 147.973 45.5505 144.087 44.9916C143.957 44.9878 143.83 45.0271 143.73 45.1021C143.629 45.1772 143.562 45.2829 143.541 45.3995C143.52 45.5161 143.547 45.6357 143.616 45.7358C143.685 45.836 143.792 45.9099 143.916 45.9438Z" fill="white"/>
<path d="M171.252 38.2949C178.898 34.8794 176.893 24.2189 168.21 23.4944C166.903 23.4086 165.591 23.5963 164.376 24.0431C163.161 24.49 162.076 25.184 161.202 26.0718C160.329 26.9596 159.692 28.0175 159.339 29.1641C158.987 30.3108 158.929 31.5156 159.169 32.6859C159.41 33.8561 159.943 34.9607 160.727 35.9146C161.511 36.8684 162.526 37.6461 163.693 38.1879C164.86 38.7297 166.148 39.021 167.459 39.0396C168.769 39.0581 170.067 38.8033 171.252 38.2949ZM159.675 29.901C160.027 28.3457 160.921 26.9345 162.224 25.8758C163.527 24.8172 165.17 24.1673 166.911 24.0222C174.522 23.453 178.704 32.6955 172.038 37.1357C166.375 40.9238 158.49 36.111 159.675 29.8907V29.901ZM220.705 103.5C213.412 101.72 196.936 97.2899 189.267 96.2549C188.663 96.1617 188.766 97.797 188.766 98.0454C188.766 99.0804 188.39 107.868 188.766 107.971C188.333 108.157 216.113 114.316 220.044 115.216L220.466 115.061C220.796 107.35 221.4 103.686 220.705 103.5ZM220.101 114.657C210.233 112.152 199.215 109.803 189.165 107.588C189.427 106.098 189.165 102.889 189.347 96.6482C189.518 96.6482 204.388 99.4323 220.5 103.966C220.124 106.895 220.272 111.5 220.101 114.678V114.657ZM81.2686 38.2949C92.2302 39.4541 108.547 40.7271 133.844 45.1362C134.596 45.2708 134.721 44.1944 133.969 44.1012C118.244 41.3688 97.5971 38.0568 81.3825 37.3737C81.2543 37.3698 81.129 37.4088 81.0304 37.4832C80.9317 37.5575 80.8664 37.6622 80.847 37.7774C80.8332 37.8959 80.8688 38.0148 80.9469 38.1106C81.0249 38.2065 81.1397 38.2722 81.2686 38.2949ZM217.093 64.853C217.093 64.4907 216.523 64.6149 216.466 64.9047C216.318 65.7845 216.284 77.5007 216.284 78.929C215.564 79.055 214.914 79.4049 214.447 79.9187C213.98 80.4324 213.725 81.0779 213.725 81.7442C213.725 82.4104 213.98 83.0559 214.447 83.5696C214.914 84.0834 215.564 84.4333 216.284 84.5594C216.284 87.9231 216.102 92.0735 216.284 95.313C216.297 95.3715 216.332 95.4241 216.383 95.4619C216.434 95.4996 216.497 95.5203 216.563 95.5203C216.629 95.5203 216.692 95.4996 216.743 95.4619C216.794 95.4241 216.829 95.3715 216.842 95.313C217.025 92.2701 216.99 87.7782 217.025 84.5594C220.979 84.6215 221.104 78.8979 217.093 78.8565C217.104 69.0654 217.093 64.47 217.093 64.853ZM203.909 53.9958C204.855 54.3581 208.706 55.124 209.721 54.5961C209.994 54.4512 210.097 53.9441 209.721 53.7992C209.629 53.7992 205.163 53.3127 204.16 53.0954C204.033 53.0753 203.902 53.0997 203.793 53.1636C203.685 53.2276 203.607 53.3263 203.575 53.4401C203.544 53.5539 203.561 53.6744 203.622 53.7774C203.684 53.8804 203.787 53.9584 203.909 53.9958ZM217.116 43.9874C218.951 43.3683 220.519 42.2288 221.586 40.7375C222.653 39.2463 223.163 37.4825 223.041 35.7074C222.833 33.9469 222.009 32.2933 220.691 30.9894C219.372 29.6854 217.628 28.7997 215.714 28.4624C213.698 28.1435 211.624 28.4763 209.85 29.4028C208.076 30.3293 206.716 31.791 206.006 33.5339C205.416 34.9578 205.283 36.5045 205.623 37.9943C205.962 39.4841 206.76 40.856 207.923 41.9505C209.086 43.0451 210.567 43.8175 212.195 44.178C213.822 44.5386 215.528 44.4725 217.116 43.9874ZM206.245 34.5689C206.667 32.935 207.685 31.4787 209.133 30.4363C210.581 29.3939 212.374 28.8267 214.221 28.8267C216.069 28.8267 217.862 29.3939 219.31 30.4363C220.758 31.4787 221.776 32.935 222.198 34.5689C222.583 36.1738 222.394 37.8486 221.658 39.3491C220.922 40.8497 219.678 42.0976 218.107 42.911C211.977 45.9746 204.639 40.7375 206.245 34.5689ZM220.853 55.569C218.904 55.1342 216.924 54.8229 214.928 54.6375C214.358 54.5858 214.153 55.3413 214.666 55.4862C216.655 55.9392 218.677 56.2609 220.716 56.4488C220.846 56.4636 220.977 56.4319 221.081 56.3604C221.186 56.2888 221.255 56.1831 221.275 56.0658C221.285 55.9502 221.248 55.8352 221.17 55.7433C221.092 55.6514 220.979 55.5892 220.853 55.569Z" fill="white"/>
<path d="M210.918 39.2679C211.998 38.576 213.026 37.8187 213.995 37.0013C214.87 37.9815 215.86 38.8733 216.946 39.6612C217.208 39.744 217.367 39.4853 217.288 39.299C217.208 39.1127 214.815 36.8771 214.519 36.5769C215.499 35.8007 216.444 35.0141 217.367 34.1964C217.721 33.9066 217.196 33.4512 216.843 33.7514C215.909 34.5483 214.974 35.3246 214.029 36.1008L211.681 33.7514C211.465 33.5444 211.134 33.8238 211.317 34.0515L213.516 36.5045C212.536 37.2911 211.488 38.0259 210.588 38.8746C210.36 39.0816 210.645 39.4335 210.918 39.2679ZM187.753 34.4655C187.867 34.4655 187.753 34.4655 190.032 32.8509C187.992 36.401 188.322 38.4089 189.45 38.6055C190.328 38.7608 193.78 36.3389 192.174 36.5355C191.217 36.6597 186.75 41.7105 190.92 32.2817C191.012 32.0747 190.761 32.0747 190.544 32.085C189.815 32.085 187.775 33.7617 187.377 34.155C187.172 34.3517 187.525 34.6415 187.753 34.4655ZM191.228 31.3398C191.513 31.4537 192.003 31.1432 192.197 30.8327C192.39 30.5222 192.345 30.0254 191.9 29.9426C191.706 29.9026 191.503 29.9253 191.326 30.0068C191.148 30.0882 191.008 30.2233 190.928 30.3887C190.849 30.5542 190.835 30.7397 190.89 30.9133C190.944 31.0869 191.064 31.2377 191.228 31.3398ZM205.517 79.3638C205.403 84.0524 205.209 88.7409 205.255 93.4191C205.255 93.6779 205.699 93.7193 205.699 93.4191C206.007 88.7409 206.098 84.042 206.235 79.3535C207.047 79.2999 207.808 78.9739 208.371 78.4388C208.933 77.9038 209.256 77.198 209.277 76.4585C209.299 75.7191 209.017 74.9988 208.486 74.4378C207.955 73.8768 207.214 73.5151 206.406 73.4229C206.485 70.1316 206.748 66.8093 206.634 63.518C206.634 63.1454 206.018 63.0729 205.984 63.518C205.665 66.8196 205.756 70.1627 205.665 73.4643C202.452 73.8162 201.426 78.7739 205.517 79.3638ZM112.468 68.0823C112.867 67.8443 102.145 57.7323 102.11 58.3844C102.008 59.7299 101.358 73.5368 102.338 73.247C106.03 72.1499 112.65 68.0823 112.468 68.0823ZM214.838 125.132C212.126 123.796 204.024 122.151 200.879 121.706C200.617 121.706 200.515 122.027 200.788 122.078C205.631 122.999 210.257 124.738 214.644 125.587C214.707 125.597 214.771 125.588 214.827 125.559C214.883 125.531 214.926 125.486 214.949 125.432C214.972 125.378 214.973 125.319 214.953 125.264C214.933 125.209 214.892 125.162 214.838 125.132ZM64.2459 84.1869C64.8606 84.5672 65.5773 84.7889 66.3197 84.8286C66.6616 84.8286 66.673 84.3629 66.3197 84.3215C65.4879 84.218 63.699 83.8247 64.0408 82.6862C64.2915 82.0445 62.7646 83.0691 64.2459 84.1869ZM69.9205 82.1583C70.9232 82.2204 70.8776 81.7547 70.9915 81.0095C71.1075 80.1473 71.1722 79.2801 71.1853 78.4116C71.1853 78.1943 70.8548 78.1943 70.832 78.4116C70.7637 79.1982 70.2851 80.9681 70.3307 81.6201C68.2796 81.6408 69.6128 82.1583 69.9205 82.1583ZM216.877 172.214C208.366 170.537 197.165 168.529 188.801 166.666C188.693 166.666 188.589 166.698 188.503 166.757C188.418 166.816 188.356 166.899 188.327 166.993C188.299 167.087 188.305 167.187 188.346 167.278C188.386 167.368 188.458 167.444 188.55 167.494C196.663 169.564 208.217 171.893 216.581 173.187C217.276 173.3 217.595 172.359 216.877 172.214ZM74.1137 145.324C74.2732 144.393 73.8402 143.254 73.0426 143.689C72.7158 143.917 72.4885 144.243 72.4009 144.608C72.3133 144.974 72.3711 145.356 72.564 145.687C73.0084 146.597 73.9314 146.421 74.1137 145.324ZM147.199 99.8154C146.813 100.063 146.496 100.39 146.275 100.769C146.053 101.149 145.932 101.57 145.923 101.999C145.923 102.299 146.356 102.496 146.618 102.113C147.108 101.389 146.618 101.337 147.678 100.726C148.737 100.116 147.746 99.5774 147.199 99.8154ZM147.609 103.428C147.486 103.573 147.407 103.745 147.381 103.927C147.355 104.109 147.383 104.294 147.461 104.463C147.769 105.218 148.407 104.897 148.487 104.08C148.566 103.262 147.94 103.148 147.609 103.428ZM66.126 76.8591C65.6702 76.8591 65.4537 77.5215 65.4196 77.8941C65.4196 78.7221 66.1374 78.836 66.4793 78.4116C66.8211 77.9873 66.8097 76.8177 66.126 76.8591ZM73.3502 79.3328C73.4508 79.3784 73.5666 79.3878 73.6744 79.359C73.7823 79.3302 73.8741 79.2654 73.9314 79.1775C74.1735 78.7694 74.2578 78.2992 74.1707 77.8424C74.1265 77.7404 74.048 77.6538 73.9462 77.5951C73.8445 77.5363 73.7248 77.5083 73.6045 77.5152C73.4842 77.5221 73.3693 77.5635 73.2766 77.6335C73.1838 77.7034 73.1178 77.7983 73.0882 77.9045C72.9059 78.2978 72.9628 79.1258 73.3502 79.3328ZM74.5125 157.9C74.9455 157.196 74.7176 155.633 73.7377 155.726C73.1793 155.726 72.9172 156.409 72.94 157.01C72.9742 158.045 74.0225 158.666 74.5125 157.9ZM74.1365 168.074C73.3502 168.001 73.2477 169.109 73.5553 169.709C73.863 170.309 74.6948 169.895 74.786 169.109C74.8429 168.539 74.5809 168.115 74.1365 168.074ZM199.307 104.266C204.226 105.847 209.306 106.977 214.473 107.64C214.872 107.702 214.94 107.143 214.541 107.091C209.453 106.283 204.416 105.222 199.455 103.914C199.404 103.896 199.346 103.898 199.296 103.918C199.246 103.938 199.207 103.976 199.187 104.023C199.168 104.069 199.169 104.121 199.192 104.167C199.214 104.212 199.255 104.248 199.307 104.266ZM192.755 101.523C192.433 101.826 192.208 102.203 192.105 102.613C192.002 103.024 192.024 103.452 192.169 103.852C192.315 104.252 192.578 104.608 192.93 104.881C193.283 105.155 193.711 105.336 194.168 105.404C194.742 105.481 195.328 105.368 195.817 105.084C196.307 104.801 196.668 104.367 196.834 103.862C197.01 103.384 197.004 102.865 196.817 102.39C196.63 101.915 196.273 101.51 195.804 101.241C195.334 100.971 194.778 100.853 194.226 100.904C193.673 100.955 193.155 101.173 192.755 101.523ZM146.06 75.11C143.895 66.6126 152.452 58.4568 162.343 61.9965C164.075 62.6081 165.633 63.5669 166.9 64.8014C164.621 66.3642 166.627 69.3554 167.345 69.107C167.742 69.3276 168.194 69.4547 168.66 69.4767C169.125 69.4987 169.589 69.415 170.01 69.2332C170.431 69.0513 170.795 68.777 171.07 68.4351C171.345 68.0932 171.521 67.6945 171.584 67.275C171.672 66.7961 171.612 66.3043 171.411 65.8545C171.209 65.4047 170.874 65.0146 170.443 64.7279C170.011 64.4412 169.5 64.2691 168.967 64.2309C168.434 64.1927 167.9 64.2899 167.425 64.5116C163.083 60.1439 155.278 59.202 150.127 62.9177C146.253 65.7122 144.111 70.794 145.627 75.1617C145.706 75.4101 146.117 75.3687 146.06 75.11ZM48.6694 59.4711C49.4556 55.5692 53.2273 57.1217 53.5121 57.9083C54.0603 57.3524 54.7375 56.9141 55.4948 56.6249C56.019 51.9363 51.256 47.3099 46.4475 48.4173C41.2629 49.5869 39.3714 56.0867 42.8695 59.8023C44.2919 61.2485 46.26 62.1571 48.3845 62.3484C48.3881 61.3837 48.4834 60.421 48.6694 59.4711Z" fill="white"/>
<path d="M189.074 113.519C188.288 113.384 188.88 120.132 188.926 120.867C187.661 120.64 188.071 122.606 188.094 123.196C188.163 125.97 187.046 128.495 187.308 128.816C186.818 129.975 186.294 131.145 185.781 132.314C184.915 132.314 184.254 133.008 183.616 133.484C177.679 137.965 173.019 143.192 172.221 144.786C171.136 142.603 169.86 140.502 168.404 138.504C173.463 135.885 175.811 130.224 176.198 125.183C176.587 120.321 175.113 115.486 172.028 111.496C168.942 107.507 164.434 104.609 159.266 103.293C159.323 100.488 159.368 97.6832 159.425 94.8784C162.28 95.0434 165.133 94.5389 167.711 93.4133C170.29 92.2878 172.506 90.5789 174.147 88.451C181.406 79.136 178.557 64.2424 168.097 57.8564C156.417 50.7667 139.097 57.4631 139.61 73.4539C139.748 78.9341 141.848 84.2242 145.592 88.5235C145.524 88.6994 145.467 88.8754 145.41 89.0617C139.45 85.6255 129.799 86.9917 129.571 87.8921C129.37 86.833 128.985 85.8095 128.432 84.8596C130.095 85.108 132.032 85.4909 133.685 85.76C134.152 85.8325 133.878 70.3696 134.129 54.8653C134.129 54.3271 86.2715 47.6203 81.2009 47.3926C81.0967 47.4021 80.9996 47.4446 80.9267 47.5128C80.8537 47.581 80.8096 47.6703 80.8021 47.7652C80.597 57.6287 80.6425 67.5233 80.5628 77.4076C80.4602 77.5732 80.5628 77.656 80.8249 77.6974C84.3344 78.4529 101.335 80.8024 105.517 81.4544C102.406 84.28 101.78 88.2854 102.406 92.1149C83.3431 88.3889 83.7191 88.3993 81.0072 87.9749C80.8774 87.9569 80.745 87.9858 80.6385 88.0555C80.532 88.1252 80.4598 88.23 80.4374 88.3475C80.416 88.4541 80.4391 88.5642 80.5024 88.6561C80.5656 88.748 80.6644 88.8151 80.7793 88.8443C83.0582 89.4136 82.4429 89.248 102.623 93.1603C103.156 95.3039 103.845 97.413 104.685 99.4738L90.0317 97.2071C88.8923 97.0208 81.0413 95.4787 80.5856 95.9858C76.5551 94.0818 72.2405 92.722 67.778 91.9493V90.3968C71.7775 89.7965 74.8427 85.0562 75.7542 81.8788C76.4493 81.8788 76.7342 81.8167 77.0304 81.206C77.3267 80.5954 79.241 75.9586 78.3522 75.4825C77.7486 75.2799 77.1147 75.1612 76.4721 75.1306V73.7851C77.5691 69.7163 78.1841 65.5526 78.3066 61.3651C78.2041 59.6056 76.586 59.2951 76.0277 60.1438C75.9456 59.9438 75.8064 59.7674 75.6243 59.6326C75.4422 59.4979 75.2238 59.4096 74.9917 59.3769C74.7596 59.3442 74.5221 59.3683 74.3036 59.4467C74.0851 59.5251 73.8936 59.655 73.7488 59.8229C73.6166 59.4939 73.3762 59.2098 73.0603 59.0091C72.7444 58.8083 72.3682 58.7006 71.9826 58.7006C71.597 58.7006 71.2208 58.8083 70.9049 59.0091C70.589 59.2098 70.3486 59.4939 70.2164 59.8229C69.6125 58.2704 67.4817 57.8254 66.7297 59.5228L66.2397 58.8914C66.2625 48.6449 55.5743 41.1929 45.2165 42.911C40.5399 43.5163 36.3195 45.7842 33.4839 49.2159C30.6482 52.6476 29.4295 56.9619 30.0958 61.2098C30.7622 65.4577 33.259 69.2911 37.0371 71.8668C40.8152 74.4425 45.565 75.5495 50.2416 74.9443C49.3818 71.4907 48.784 67.9876 48.4526 64.4597C43.6213 64.6046 38.3114 65.4326 34.95 68.8067C32.6203 66.1581 31.2804 62.9041 31.1247 59.5169C30.969 56.1297 32.0055 52.7855 34.084 49.9697C36.1486 47.2621 39.1028 45.2166 42.5243 44.1257C45.9457 43.0349 49.6593 42.9544 53.1341 43.8959C56.6089 44.8374 59.6671 46.7526 61.8715 49.3677C64.0759 51.9829 65.3137 55.1641 65.4079 58.4567C65.1865 58.3529 64.9448 58.2898 64.6965 58.2711C64.4483 58.2524 64.1984 58.2784 63.9612 58.3476C63.7241 58.4169 63.5043 58.528 63.3145 58.6746C63.1248 58.8212 62.9688 59.0004 62.8555 59.2019C62.7217 58.9277 62.5 58.6965 62.2192 58.5385C61.9385 58.3806 61.6118 58.3033 61.2819 58.3167C60.952 58.3301 60.6342 58.4337 60.3701 58.6137C60.1061 58.7938 59.9079 59.0421 59.8017 59.3261C59.6433 59.0661 59.4141 58.8473 59.1361 58.6906C58.8581 58.5339 58.5405 58.4445 58.2137 58.431C57.8868 58.4175 57.5616 58.4804 57.2691 58.6135C56.9766 58.7466 56.7266 58.9457 56.5428 59.1916C56.3739 58.9493 56.1363 58.7529 55.8548 58.6231C55.5733 58.4933 55.2585 58.4348 54.9436 58.4539C54.6286 58.473 54.3251 58.5689 54.0651 58.7315C53.8051 58.8941 53.5983 59.1174 53.4663 59.3779C53.2175 59.1838 52.9169 59.0526 52.5946 58.9975C52.2723 58.9424 51.9397 58.9653 51.6303 59.0639C51.3208 59.1624 51.0454 59.3333 50.8316 59.5592C50.6179 59.785 50.4733 60.0581 50.4125 60.3508C49.273 64.0975 52.0305 77.2213 54.15 82.2617C54.0474 82.7896 53.9221 83.2967 53.7739 83.8246C46.7206 82.7896 37.1947 81.4855 29.7426 80.378C29.0931 80.2849 28.9792 81.1646 29.5945 81.2785C37.32 82.7378 45.6609 83.9695 53.5232 84.8389C53.0333 86.4638 52.4977 88.0681 51.9736 89.693C50.4327 89.9542 48.9106 90.2998 47.4157 90.728C47.0055 90.4175 31.3037 88.2337 29.5489 88.037C29.0133 87.9853 28.7968 88.7926 29.3552 88.9064C34.5511 89.9414 39.861 90.5728 45.114 91.3594C42.0843 92.2785 39.1423 93.4208 36.3173 94.7749C33.9016 95.9341 34.4258 96.2135 31.5999 95.8099C30.5402 95.6443 29.5147 95.3338 28.455 95.1371C27.965 95.0647 26.5065 96.2446 32.2608 96.938C21.6438 102.92 13.4078 111.826 8.75363 122.358C2.01938 138.11 11.2832 150.075 29.3666 146.773C28.3752 157.827 27.9992 167.98 27.9194 179.024C27.9194 179.303 28.2499 179.324 28.2499 179.024C28.4208 168.187 29.0703 157.413 30.0161 146.639C44.2822 143.679 52.8054 131.673 59.2775 120.702C61.0805 121.958 62.9849 123.089 64.9749 124.086L61.1349 135.078C60.964 135.595 59.5852 139.063 59.9954 139.114C61.773 139.332 67.5273 139.114 69.5555 139.052C69.2479 139.559 69.7265 174.47 69.8746 180.162C69.8746 180.442 70.1936 180.411 70.1936 180.162C70.1936 177.782 70.4215 139.797 70.0797 139.073L88.7897 138.69C89.3253 138.69 90.9205 133.453 91.1598 132.749C93.7888 148.568 95.2619 164.528 95.5695 180.525C95.5695 180.804 95.9 180.763 95.9114 180.525C95.7906 164.055 94.3664 147.615 91.6498 131.331L93.0627 126.963C99.0791 129.644 106.451 124.831 105.415 118.383C107.822 121.082 109.328 124.35 109.756 127.802C107.806 131.624 106.475 135.681 105.802 139.849C103.307 142.54 97.575 143.13 93.9971 142.789C93.5299 142.789 93.4159 143.399 93.8831 143.441C97.3015 143.772 102.896 143.192 105.62 140.988C103.683 153.542 106.315 166.293 109.984 178.403C110.052 178.61 110.383 178.496 110.326 178.299C106.201 163.716 103.227 147.85 108.172 133.204C114.097 115.682 127.235 117.472 127.862 117.141C127.133 119.087 127.361 119.832 129.343 121.219C132.841 123.631 143.951 123.972 143.769 120.412C150.953 123.258 157.393 127.451 162.668 132.716C167.943 137.982 171.932 144.201 174.375 150.965C174.443 151.162 174.785 151.1 174.728 150.903C174.146 149.04 173.419 147.217 172.552 145.448C176.209 140.822 180.463 136.611 185.223 132.904C189.951 133.37 193.404 134.457 196.025 138.483C195.865 139.156 195.706 139.828 195.558 140.501C193.507 149.971 189.632 164.203 181.804 171.054C172.78 178.931 161.362 177.751 154.058 168.705C150.458 164.265 148.76 158.945 146.8 153.801C146.743 153.635 146.447 153.728 146.492 153.894C148.258 159.535 150.72 166.035 154.947 170.527C159.619 175.453 166.08 178.041 173.087 176.281C172.951 178.662 172.825 181.042 172.78 183.423C172.78 183.619 173.087 183.609 173.11 183.423L173.714 176.105C181.93 173.756 186.921 167.142 190.008 160.218C199.124 161.957 208.24 163.727 217.356 165.786C218.074 165.952 218.29 164.948 217.572 164.751C210.177 162.95 197.837 160.373 190.373 159.369C191.034 157.61 191.843 155.519 192.515 153.749C193.848 154.06 200.811 155.302 203.09 155.819C209.095 157.175 217.47 159.017 217.971 159.131C218.677 159.307 218.894 158.293 218.199 158.096C204.833 154.691 203.283 154.991 192.812 152.797C193.324 151.244 193.803 149.692 194.259 148.088C202.36 149.599 210.507 150.882 218.598 152.497C219.316 152.652 219.407 151.607 218.689 151.462C211.533 150.044 201.665 148.15 194.498 147.208C195.056 145.231 195.637 143.234 195.979 141.226C203.705 142.602 211.328 144.165 218.86 145.593C219.578 145.728 219.897 144.734 219.179 144.558C211.613 143.13 203.762 141.453 196.173 140.253C196.538 138.276 196.629 138.183 195.318 136.661C196.652 135.823 197.461 131.89 197.654 130.389C198.304 131.197 200.298 131.041 199.933 127.181C201.449 127.636 218.575 131.466 220.09 131.673C220.808 131.766 220.82 121.385 220.842 120.288C220.797 120.194 194.145 114.398 189.074 113.519ZM142.39 64.1699C148.521 53.5819 165.59 52.0915 173.862 64.2734C182.693 77.3041 174.911 95.4994 159.471 94.2884C159.471 91.4008 159.596 88.5131 159.892 85.6358C159.892 85.315 159.083 84.6008 158.855 84.4559C162.092 80.7713 166.262 79.5604 166.832 78.1735C167.561 76.2484 163.63 77.273 162.798 77.5732C160.861 78.2356 161.066 76.7762 161.556 75.617C162.695 72.9674 166.114 70.2868 165.305 69.0551C164.496 67.8235 161.112 71.0009 160.405 71.8289C159.505 71.2804 157.978 71.7358 157.135 72.2326C156.861 71.8807 152.953 71.5288 150.97 76.2277L149.147 81.7649C147.529 82.0133 148.133 82.4894 145.729 87.9749C140.442 81.8477 138.174 71.4149 142.39 64.1699ZM155.847 73.723C156.759 73.3193 157.739 71.653 160.143 72.098L158.32 74.3957C158.217 74.5613 158.422 74.789 158.593 74.6338C160.382 73.0399 161.716 70.3696 164.177 69.3967C166.376 68.5273 162.023 73.3504 161.294 74.7269C160.804 75.6688 159.938 78.1838 161.955 78.1838C162.205 78.1838 166.718 76.7348 166.296 77.9665C165.875 79.1981 160.599 80.8852 158.559 84.1765C156.1 82.305 152.925 81.3934 149.728 81.6407C150.754 78.3598 151.825 72.1705 156.725 72.4603C155.437 73.3814 155.551 73.8368 155.847 73.723ZM129.64 88.42C133.992 89.455 131.611 95.665 127.133 96.5654C125.891 96.8242 123.862 97.0105 122.757 96.317C122.365 96.0544 122.061 95.6967 121.882 95.2849C121.703 94.8731 121.655 94.4237 121.743 93.9883C125.651 96.7621 131.292 92.0011 129.64 88.42ZM113.687 95.2924C121.242 96.7621 121.39 96.7724 121.264 96.7724C120.671 98.4694 120.466 100.259 120.661 102.03L113.562 100.881C113.484 99.0177 113.526 97.1516 113.687 95.2924ZM121.447 95.7167L113.938 94.2781C115.077 91.2662 118.872 91.6181 121.23 93.5743C120.99 94.2827 121.051 95.0472 121.401 95.7167H121.447ZM120.763 103.117C121.205 105.729 122.216 108.234 123.737 110.486L111.317 108.416C112.57 106.456 113.311 104.261 113.482 101.999L120.763 103.117ZM80.9616 77.3248C81.6681 68.8378 81.3376 57.2251 81.4174 47.879C83.0354 48.1274 84.6648 48.3241 86.2943 48.5104C101.358 50.3941 119.031 53.4784 133.525 55.2689C133.411 65.1325 133.035 75.2134 133.229 85.0769L128.067 84.311C123.657 77.48 112.536 75.6998 105.996 81.0094C98.0308 79.8191 88.7783 78.4529 80.9616 77.3248ZM105.13 100.664C106.068 102.913 106.714 105.255 107.055 107.64C104.275 107.153 101.495 106.667 98.7145 106.294C99.25 103.966 99.4551 105.042 94.2933 104.545C90.863 101.678 87.0729 99.1868 83.0012 97.1243C85.4739 97.559 79.8905 96.6275 105.13 100.664ZM98.0536 109.037C100.137 111.006 101.84 113.281 103.09 115.765C102.087 115.221 100.961 114.891 99.797 114.802C99.1117 113.967 98.1614 113.342 97.0736 113.012C97.4041 111.666 97.7345 110.362 98.0536 109.037ZM93.3932 104.535H92.6069L92.4246 103.779C92.3107 103.717 92.8348 104.131 93.3932 104.535ZM76.7 94.9922C82.0082 97.0022 86.9611 99.7119 91.3991 103.034L88.4935 102.869C88.7897 99.7636 83.4684 99.836 83.6621 102.755C82.3614 102.734 81.0612 102.817 79.7765 103.003C79.3355 103.353 79.0118 103.808 78.8422 104.318L76.4151 101.989L79.241 99.6704C79.993 99.5773 78.5915 98.2939 78.318 97.973L75.0705 94.3816C75.6175 94.5886 76.1644 94.7852 76.7 94.9922ZM86.3399 103.562C85.5308 103.945 84.9611 102.434 85.8385 102.217C86.4652 102.061 87.3426 103.034 86.3399 103.562ZM75.2187 81.2474C74.293 81.2108 73.3733 81.093 72.4726 80.8955C72.1079 80.6368 72.4726 76.2587 71.9256 75.203L75.9137 75.6895C75.8934 77.5589 75.6604 79.4214 75.2187 81.2474ZM76.4265 75.7619L77.9534 75.9689C77.6709 77.8163 77.135 79.6244 76.3581 81.3509H75.8682C76.2744 79.5115 76.4616 77.6377 76.4265 75.7619ZM59.1066 70.8871C60.4968 71.7047 73.8285 72.3464 75.891 71.9842V75.0892C70.1371 74.2515 64.3281 73.764 58.5027 73.6298C58.7787 72.7304 58.9805 71.8136 59.1066 70.8871ZM70.5924 75.0271C69.8974 75.6067 68.8832 79.2706 68.4958 80.4298C68.1198 80.2124 64.3254 80.4298 63.938 79.8295C63.6873 79.4983 63.6075 75.379 63.448 74.4164L70.5924 75.0271ZM54.8906 80.4712C54.7539 79.0015 53.9107 77.3662 54.4006 75.9482C54.5602 75.4618 55.1869 74.5613 55.8819 74.9132C56.3719 75.1513 57.6937 77.0764 58.3432 74.1473L62.8213 74.3957C62.7317 76.2434 62.8424 78.0946 63.1517 79.9226C63.2885 80.4505 64.2912 80.8645 66.5701 80.9576C68.5528 81.0404 68.6667 80.9576 68.906 80.5126C69.6011 79.4776 70.7292 75.4721 71.0254 75.4825C71.8573 75.4825 71.4243 79.4879 71.6749 80.9059C71.8345 81.7649 74.1704 81.7028 75.025 81.796C72.9511 88.834 67.2082 89.5585 67.2652 90.076C67.073 90.9057 67.0154 91.7565 67.0943 92.6014C64.8951 94.0711 56.4745 95.7788 52.3382 90.4589C53.2954 88.8961 55.0501 82.2307 54.8906 80.4712ZM48.7375 90.935C49.7528 94.3212 51.0401 97.6351 52.5889 100.85C51.0164 100.519 50.0707 102.465 50.8911 103.272C51.0734 103.448 54.7539 105.177 55.2324 105.342C52.8282 106.522 52.8624 108.861 52.7256 111.086C51.9622 110.693 49.6491 111.469 48.7831 111.687L44.7494 107.888C45.1254 107.267 47.8031 103.541 47.4727 103.365L41.6386 100.395C42.892 95.6443 44.9203 92.9015 45.171 91.8769C46.3414 91.5081 47.5318 91.1937 48.7375 90.935ZM58.9927 106.532C59.9954 106.263 64.1431 104.928 64.69 106.274C62.9902 106.685 61.3928 107.387 59.984 108.344C59.8587 108.458 59.984 108.675 60.1435 108.613C61.0437 108.22 61.6704 107.733 62.4225 108.613C63.4138 109.731 63.4138 112.339 61.8527 111.987C61.6135 108.944 61.2032 109.741 61.2146 109.917C61.3742 111.987 61.5679 114.605 60.4968 116.51C57.5342 115.858 54.5146 114.44 53.1472 111.801C53.2953 110.859 53.4435 109.927 53.603 108.985C53.8765 107.267 54.2411 106.574 55.2438 106.025C56.6951 105.364 58.2241 104.853 59.8017 104.504C60.3864 104.327 61.0127 104.298 61.6145 104.418C62.2162 104.538 62.771 104.804 63.2201 105.187C61.7379 105.328 60.2888 105.678 58.9243 106.222C58.879 106.219 58.8343 106.233 58.8001 106.26C58.7659 106.287 58.745 106.326 58.742 106.367C58.739 106.408 58.7541 106.449 58.784 106.48C58.8139 106.511 58.8562 106.53 58.9015 106.532H58.9927ZM65.2142 109.234L62.0009 107.795C64.4735 106.615 64.1886 106.532 65.9092 107.34C65.5769 107.541 65.3224 107.832 65.1814 108.172C65.0404 108.512 65.02 108.883 65.123 109.234H65.2142ZM66.6157 107.64L68.0286 109.12L67.721 109.71L65.6813 109.503C65.5104 108.116 66.2169 107.692 66.6157 107.64ZM55.9161 105.125L54.4918 104.483C54.5638 104.136 54.717 103.806 54.941 103.517C55.1651 103.228 55.4549 102.985 55.7908 102.806L58.8446 104.183L55.9161 105.125ZM54.093 104.307L53.113 103.862C53.3287 103.173 53.8206 102.582 54.4918 102.206L55.278 102.558C54.9574 102.756 54.6863 103.014 54.4822 103.313C54.278 103.613 54.1454 103.948 54.093 104.297V104.307ZM29.2184 146.225C22.2221 147.529 13.2659 146.411 9.40312 140.325C4.66295 132.801 8.09274 123.682 12.3657 116.675C19.369 105.233 30.7241 96.5007 44.305 92.1149C43.7808 93.0671 40.4536 100.115 41.3196 100.685L46.8802 103.686C46.2535 104.287 43.6897 108.075 44.5101 108.137C45.5904 109.47 46.7951 110.717 48.1108 111.863C38.1306 114.468 28.7343 118.652 20.3534 124.221C20.1597 124.345 20.3534 124.593 20.5357 124.479C28.1641 119.619 36.553 115.826 45.4216 113.229C45.9116 117.98 50.5378 124.096 55.7794 125.256C49.877 134.55 40.8866 144.093 29.2184 146.214V146.225ZM56.087 124.78C55.4034 124.159 47.4043 122.202 45.8319 113.125L52.4635 111.48C54.1386 116.158 59.0952 116.582 60.531 117.276C59.0838 119.791 57.6481 122.306 56.087 124.769V124.78ZM65.1344 123.651L59.5966 120.215L61.3286 117.245C61.4539 117.038 61.1805 116.841 61.0095 116.707C61.1007 116.489 61.1918 116.261 61.283 116.065C61.7274 116.707 65.3167 121.892 65.8409 121.757L65.1344 123.651ZM65.989 121.25C64.4393 119.315 62.958 117.328 61.5451 115.309C61.7762 114.411 61.8721 113.488 61.83 112.567C63.8012 112.929 63.8582 110.114 63.2771 108.996C63.6075 109.151 65.3053 109.824 65.613 109.896C65.9206 109.969 70.1708 110.828 69.5213 109.896C68.6693 108.964 67.7561 108.079 66.7866 107.247C66.292 106.947 65.7741 106.681 65.237 106.45C65.3167 105.715 64.371 105.239 63.6987 105.187C62.8669 103.345 59.7789 103.976 59.7105 103.966L53.2954 101.119C52.7484 100.612 49.4667 91.8044 49.0907 90.7694C49.9567 90.5728 50.8113 90.3968 51.6887 90.2312C52.2584 92.384 55.2666 94.0193 58.5939 94.5782C62.2743 95.1992 65.8523 94.3919 67.6412 92.9429C67.8235 92.7877 67.7666 92.4875 67.7666 92.2598C68.8263 92.5496 69.8974 92.8084 70.9571 93.0878C71.1318 98.1104 70.9987 103.138 70.5583 108.147C70.5127 108.758 71.5268 105.756 65.989 121.24V121.25ZM72.1535 104.69C71.6635 104.856 71.2989 106.481 71.1394 106.926C71.7842 102.42 71.914 97.8661 71.5268 93.3362L74.3185 94.1746C75.7065 95.9728 77.1975 97.7036 78.7852 99.3599C78.4548 99.6601 75.7656 101.813 75.9935 102.072L78.1813 104.535L72.1535 104.69ZM78.8878 106.605C78.7578 106.597 78.6368 106.542 78.5513 106.453C78.4658 106.363 78.4229 106.247 78.432 106.129C78.441 106.011 78.5014 105.901 78.5997 105.823C78.698 105.746 78.8262 105.707 78.9561 105.715C83.1882 105.918 87.4291 105.918 91.6612 105.715C92.7095 105.715 92.55 106.75 91.8777 106.75C87.5498 106.997 83.2076 106.948 78.8878 106.605ZM92.5613 119.843C91.2738 120.464 90.9319 119.211 92.6639 118.176C93.2034 117.752 93.8612 117.472 94.5649 117.366C95.2686 117.26 95.9909 117.333 96.652 117.576C97.142 117.762 96.7774 116.603 94.9656 116.81C94.2609 116.908 93.5882 117.145 92.9943 117.503C91.627 117.783 89.5759 117.628 91.4561 116.541C93.3362 115.454 95.2733 114.678 97.1534 116.065C97.8485 116.572 97.2559 114.502 94.2705 114.947C93.9401 114.688 91.8093 114.947 91.1826 114.812C89.2341 114.305 95.6607 111.946 98.5777 114.119C101.164 116.034 101.358 118.663 99.25 121.033C98.6704 121.646 97.9309 122.118 97.0989 122.406C96.267 122.693 95.3691 122.787 94.487 122.678C94.8061 121.643 95.1024 120.608 95.3986 119.573C96.5951 120.132 95.2505 117.659 92.5044 119.874L92.5613 119.843ZM103.386 123.92C102.249 125.328 100.628 126.351 98.7784 126.827C96.9291 127.303 94.9579 127.206 93.1767 126.549L94.2478 123.092C97.4725 123.796 100.446 121.374 101.085 118.663C101.232 118.084 101.228 117.483 101.074 116.906C100.919 116.329 100.619 115.793 100.196 115.34C101.335 115.589 104.355 116.924 104.56 117.586C104.876 118.665 104.93 119.793 104.718 120.892C104.505 121.991 104.031 123.035 103.329 123.952L103.386 123.92ZM110.269 126.715C109.539 122.927 107.374 118.714 103.967 116.365C103.967 116.365 101.244 110.724 98.1105 108.551L98.4182 107.205C101.267 107.795 104.116 108.24 107.044 108.758C107.044 111.801 103.101 114.44 104.081 114.367C106.953 114.14 108.924 111.49 110.554 109.337C112.035 109.596 123.965 111.77 124.421 111.635C125.454 113.157 126.768 114.505 128.306 115.62L127.93 116.655C119.646 115.558 112.548 122.989 110.269 126.715ZM129.64 120.733C129.188 120.472 128.809 120.121 128.531 119.707C128.252 119.292 128.082 118.825 128.033 118.342C128.416 117.615 128.677 116.841 128.808 116.044C130.727 116.216 132.662 115.931 134.423 115.215C136.183 114.5 137.708 113.38 138.846 111.966C142.185 107.743 138.277 106.543 138.721 104.318C138.824 103.821 139.576 102.941 140.476 103.107C141.376 103.272 142.516 105.694 142.755 103.2C142.869 102.147 142.869 101.086 142.755 100.033C144.532 100.178 148.065 98.3663 149.238 97.1968C149.5 100.736 149.797 104.266 150.047 107.806C150.116 108.903 148.817 107.702 148.543 108.499C148.27 109.296 148.213 110.124 148.008 110.921C146.469 111.304 145.991 109.886 145.831 109.772C145.114 109.265 145.683 111.759 147.917 111.283C146.378 116.779 142.345 116.148 143.119 116.882C143.034 118.263 143.076 119.648 143.245 121.022C141.103 122.823 133.673 123.641 129.64 120.733ZM153.056 124.324C150.158 122.492 147.043 120.961 143.769 119.76L143.53 116.903C147.313 116.148 148.908 111.821 148.954 108.623C150.435 108.747 150.606 108.83 150.549 107.309C150.449 103.813 150.122 100.326 149.569 96.8656C151.608 94.8991 148.145 90.8005 145.991 89.3929L148.84 82.3756C150.738 82.0862 152.685 82.2092 154.521 82.7345C156.356 83.2598 158.029 84.1724 159.402 85.3978C157.511 100.778 161.146 110.145 153.078 124.293L153.056 124.324ZM153.34 124.49C156.246 121.602 158.274 113.281 158.685 110.445C162.086 111.44 164.981 113.51 166.846 116.279C168.711 119.047 169.421 122.331 168.849 125.535C165.772 124.831 163.721 128.888 166.741 130.265C169.988 131.745 172.666 127.253 169.475 125.742C170.116 122.38 169.379 118.921 167.403 116.018C165.428 113.116 162.351 110.971 158.753 109.989C159.049 107.919 159.22 105.849 159.311 103.779C161.944 104.519 164.415 105.668 166.615 107.174C179.252 115.858 177.543 133.235 168.074 138.059C164.148 132.722 159.136 128.116 153.306 124.49H153.34ZM188.664 121.53C188.812 120.898 190.396 122.161 190.567 124.127C189.659 125.001 188.891 125.987 188.288 127.057C189.12 124.293 188.322 122.73 188.618 121.53H188.664ZM197.848 129.81C197.923 129.224 198.056 128.645 198.247 128.081C198.247 127.916 198.03 127.874 197.951 127.998C197.13 129.344 196.959 134.819 195.068 136.351C193.992 135.209 192.678 134.271 191.201 133.593C189.725 132.914 188.115 132.508 186.465 132.397C188.185 128.588 189.234 125.369 193.188 122.865C194.631 121.975 196.26 121.362 197.973 121.064C199.261 120.836 199.204 121.519 198.406 122.099C197.267 122.854 194.988 123.444 195.068 124.334C193.564 124.583 193.404 125.608 193.928 125.369C194.76 124.966 194.863 124.707 195.934 124.748C196.254 124.738 196.572 124.798 196.861 124.922C197.15 125.046 197.403 125.232 197.597 125.463C197.05 125.463 195.694 125.866 195.603 126.498C195.603 126.829 199.022 124.738 199.523 127.222C200.093 129.458 198.429 131.59 197.802 129.789L197.848 129.81ZM219.988 131.176C213.801 129.83 205.676 127.833 199.899 126.818C199.318 126.042 199.044 125.494 197.916 125.39C197.757 124.448 196.469 124.179 195.558 124.19C196.503 123.596 197.493 123.064 198.52 122.596C199.398 122.016 200.617 120.06 197.381 120.65C197.028 120.712 196.663 120.795 196.31 120.888C196.413 120.458 196.355 120.01 196.143 119.614C195.931 119.219 195.579 118.9 195.143 118.708C194.707 118.517 194.213 118.464 193.741 118.559C193.268 118.654 192.844 118.891 192.538 119.232C192.339 119.459 192.196 119.722 192.121 120.004C192.045 120.286 192.038 120.58 192.1 120.864C192.161 121.149 192.291 121.418 192.479 121.653C192.667 121.887 192.908 122.082 193.188 122.223L191.034 123.755C191.006 123.23 190.851 122.717 190.582 122.252C190.312 121.787 189.933 121.382 189.473 121.064L189.37 113.943C194.338 115.185 220.273 120.671 220.33 120.629C220.387 120.588 219.805 127.864 219.942 131.155L219.988 131.176Z" fill="white"/>
</svg>
