<svg width="230" height="169" viewBox="0 0 230 169" fill="none" xmlns="http://www.w3.org/2000/svg">
<path d="M175.692 156.752C168.759 151.102 178.153 150.438 183.717 150.813V154.505L197.039 157.875C192.813 159.855 182.626 162.401 175.692 156.752Z" fill="white"/>
<path d="M212.127 153.382C207.633 153.895 206.295 151.883 206.188 150.813H215.818C216.46 151.455 216.621 152.868 212.127 153.382Z" fill="white"/>
<path d="M202.015 137.812C197.04 137.812 194.311 137.491 190.298 137.17" stroke="#2563EB" stroke-width="2" stroke-linecap="round"/>
<path d="M205.867 139.738V155.147" stroke="#2563EB" stroke-width="2" stroke-linecap="round"/>
<path d="M194.311 140.541L183.718 139.738" stroke="#2563EB" stroke-width="2" stroke-linecap="round"/>
<path d="M199.287 142.146V157.715" stroke="#2563EB" stroke-width="2" stroke-linecap="round"/>
<path d="M199.126 158.036L205.867 155.307" stroke="#2563EB" stroke-width="2" stroke-linecap="round"/>
<path d="M190.138 137.17L183.718 139.738" stroke="#2563EB" stroke-width="2" stroke-linecap="round"/>
<path d="M183.557 139.899V154.665" stroke="#2563EB" stroke-width="2" stroke-linecap="round"/>
<path d="M183.397 154.505L199.126 158.036" stroke="#2563EB" stroke-width="2" stroke-linecap="round"/>
<path d="M202.015 138.133V133.639" stroke="#2563EB" stroke-width="2" stroke-linecap="round"/>
<path d="M215.979 150.653V135.084" stroke="#2563EB" stroke-width="2" stroke-linecap="round"/>
<path d="M223.523 129.947V147.282" stroke="#2563EB" stroke-width="2" stroke-linecap="round"/>
<path d="M215.979 150.973L223.523 147.282" stroke="#2563EB" stroke-width="2" stroke-linecap="round"/>
<path d="M223.523 129.788L206.509 129.146" stroke="#2563EB" stroke-width="2" stroke-linecap="round"/>
<path d="M202.015 133.64L206.509 129.146" stroke="#2563EB" stroke-width="2" stroke-linecap="round"/>
<path d="M215.979 134.924L223.362 130.108" stroke="#2563EB" stroke-width="2" stroke-linecap="round"/>
<path d="M215.979 150.653H206.509" stroke="#2563EB" stroke-width="2" stroke-linecap="round"/>
<path d="M202.176 133.639L211.324 133.96" stroke="#2563EB" stroke-width="2" stroke-linecap="round"/>
<path d="M73.9226 163.508C74.0831 159.014 92.0595 160.458 93.183 160.619V163.508L98.6402 167.36C90.3475 167.574 73.7942 167.103 73.9226 163.508Z" fill="white"/>
<path d="M118.543 163.026V146.655" stroke="#2563EB" stroke-width="2" stroke-linecap="round"/>
<path d="M104.578 167.2V149.223" stroke="#2563EB" stroke-width="2" stroke-linecap="round"/>
<path d="M93.0225 163.026V145.05" stroke="#2563EB" stroke-width="2" stroke-linecap="round"/>
<path d="M93.0225 145.05L105.702 141.84" stroke="#2563EB" stroke-width="2" stroke-linecap="round"/>
<path d="M118.542 146.495L104.578 149.063" stroke="#2563EB" stroke-width="2" stroke-linecap="round"/>
<path d="M104.578 167.36L118.542 163.187" stroke="#2563EB" stroke-width="2" stroke-linecap="round"/>
<path d="M118.543 146.494L105.702 141.84" stroke="#2563EB" stroke-width="2" stroke-linecap="round"/>
<path d="M93.0225 145.21L104.739 149.063" stroke="#2563EB" stroke-width="2" stroke-linecap="round"/>
<path d="M134.19 162.705C131.237 157.569 140.664 156.82 145.746 157.087V160.779L162.278 162.705C154.146 164.845 137.143 167.841 134.19 162.705Z" fill="white"/>
<path d="M170.463 155.803L164.204 162.223" stroke="#2563EB" stroke-width="2" stroke-linecap="round"/>
<path d="M162.759 142.642L146.548 141.519" stroke="#2563EB" stroke-width="2" stroke-linecap="round"/>
<path d="M153.129 137.346L170.463 138.148" stroke="#2563EB" stroke-width="2" stroke-linecap="round"/>
<path d="M146.227 141.519L145.425 160.137" stroke="#2563EB" stroke-width="2" stroke-linecap="round"/>
<path d="M170.464 138.469V155.482" stroke="#2563EB" stroke-width="2" stroke-linecap="round"/>
<path d="M164.204 148.581V162.224" stroke="#2563EB" stroke-width="2" stroke-linecap="round"/>
<path d="M146.227 141.519L153.129 137.346" stroke="#2563EB" stroke-width="2" stroke-linecap="round"/>
<path d="M164.204 162.224L145.264 160.298" stroke="#2563EB" stroke-width="2" stroke-linecap="round"/>
<path d="M130.843 42.4124C131.539 42.1983 133.379 41.9951 135.177 42.8939" stroke="white" stroke-width="2" stroke-linecap="round"/>
<path d="M124.423 50.7585C125.664 50.7585 126.67 49.6806 126.67 48.3509C126.67 47.0213 125.664 45.9434 124.423 45.9434C123.182 45.9434 122.176 47.0213 122.176 48.3509C122.176 49.6806 123.182 50.7585 124.423 50.7585Z" fill="white"/>
<path d="M142.72 53.9689C143.961 53.9689 144.967 52.891 144.967 51.5614C144.967 50.2317 143.961 49.1538 142.72 49.1538C141.479 49.1538 140.473 50.2317 140.473 51.5614C140.473 52.891 141.479 53.9689 142.72 53.9689Z" fill="white"/>
<path d="M118.965 44.4989C119.126 43.4823 120.121 41.5456 122.818 41.9308" stroke="white" stroke-width="2" stroke-linecap="round"/>
<path d="M139.51 44.1778C140.794 43.0543 144.004 41.4814 146.572 44.1778" stroke="white" stroke-width="2" stroke-linecap="round"/>
<path d="M132.609 46.9062C134.107 49.3674 136.204 54.6425 132.609 56.0549L130.843 56.697" stroke="white" stroke-width="2" stroke-linecap="round"/>
<path d="M126.509 61.6729C126.884 62.6895 128.307 64.3693 131.003 62.9569" stroke="white" stroke-width="2" stroke-linecap="round"/>
<path d="M74.827 38.0787C69.5625 55.4131 84.1895 67.986 92.1614 72.1055C99.352 67.7398 109.603 65.5248 113.99 64.8828C108.533 60.3887 106.874 52.1494 106.446 48.351C103.557 49.314 95.853 45.6224 99.3841 38.0787C102.209 32.0438 105.269 35.1361 106.446 37.4367L114.311 40.9678C114.311 33.6488 119.34 31.1771 121.855 30.8561C123.395 29.8289 125.065 26.4689 125.707 24.9174C126.477 30.9524 134.374 35.3502 138.226 36.7947C143.234 32.8142 147.267 35.1361 148.659 36.7947L152.19 36.3132C159.091 33.9593 171.482 25.9126 165.833 12.5587C160.183 -0.795214 148.498 1.64444 143.362 4.5335C125.771 -7.15115 108.105 9.93701 101.471 19.9418C94.7828 18.7647 80.0916 20.7444 74.827 38.0787Z" fill="white"/>
<path d="M114.15 41.1283L106.446 37.1157" stroke="white" stroke-width="2" stroke-linecap="round"/>
<path d="M130.682 40.8073C130.682 46.3431 126.899 50.598 122.497 50.598C118.094 50.598 114.311 46.3431 114.311 40.8073C114.311 35.2712 118.094 31.0166 122.497 31.0166C126.899 31.0166 130.682 35.2712 130.682 40.8073Z" stroke="white" stroke-width="2"/>
<path d="M151.869 44.3386C151.869 49.8743 148.085 54.1293 143.683 54.1293C139.281 54.1293 135.497 49.8743 135.497 44.3386C135.497 38.8025 139.281 34.5479 143.683 34.5479C148.085 34.5479 151.869 38.8025 151.869 44.3386Z" stroke="white" stroke-width="2"/>
<path d="M152.19 75.279C164.517 65.3919 157.487 52.0596 152.35 46.5488C149.526 59.9027 142.988 65.6487 140.152 66.9328L144.646 69.3403L152.19 75.279Z" fill="white"/>
<path d="M107.41 40.8073C107.142 37.8647 103.718 30.8561 100.026 37.4368C98.4213 40.4327 97.2657 46.8423 105.483 48.5115" stroke="white" stroke-width="2" stroke-linecap="round"/>
<path d="M104.681 39.6841C103.932 40.3261 102.819 41.9953 104.36 43.5362" stroke="white" stroke-width="2" stroke-linecap="round"/>
<path d="M151.227 48.0298C150.328 53.1659 148.338 57.8183 146.251 60.7096C144.947 62.5175 142.833 64.7995 140.138 66.7888" stroke="white" stroke-width="2" stroke-linecap="round"/>
<path d="M106.286 48.5117C106.179 55.0388 108.726 64.7226 120.41 69.8587C122.208 70.6487 123.975 71.102 125.692 71.2846" stroke="white" stroke-width="2" stroke-linecap="round"/>
<path d="M139.028 77.7232C136.46 77.0812 134 79.1677 133.09 80.2912C132.608 81.3079 132.384 83.3087 135.337 83.1803C139.028 83.0198 140.152 77.7232 144.486 86.2299C147.952 93.0352 148.177 106.4 147.856 112.231" stroke="white" stroke-width="2" stroke-linecap="round" stroke-linejoin="round"/>
<path d="M130.627 75.9575C129.789 77.7767 129.109 81.1899 133.09 80.2911" stroke="white" stroke-width="2" stroke-linecap="round" stroke-linejoin="round"/>
<path d="M132.176 69.6978C129.929 70.6608 126.67 74.1277 127.954 76.4389C128.114 76.7063 128.596 77.2093 129.238 77.0809C129.519 77.0247 129.977 76.5352 130.627 75.9574C131.831 74.8855 133.693 73.51 136.3 74.0313" stroke="white" stroke-width="2" stroke-linecap="round" stroke-linejoin="round"/>
<path d="M177.091 124.811C178.696 116.947 177.132 98.4921 157.486 80.7725L144.486 69.3768L136.3 65.0432L134.695 64.7222L128.596 66.1667L127.954 66.8087L125.867 70.6608C125.546 71.4633 126.927 72.3942 129.238 71.6238" stroke="white" stroke-width="2" stroke-linecap="round" stroke-linejoin="round"/>
<path d="M113.509 65.5249C103.076 66.9158 75.9926 72.8962 59.5795 97.1441C44.1108 119.997 61.6057 129.627 74.6065 130.108" stroke="white" stroke-width="2" stroke-linecap="round" stroke-linejoin="round"/>
<path d="M1.49988 133.318L73.8869 129.787" stroke="white" stroke-width="2" stroke-linecap="round" stroke-linejoin="round"/>
<path d="M93.6292 128.985L228.5 123.109" stroke="white" stroke-width="2" stroke-linecap="round"/>
<path d="M81.6056 130.355C81.804 130.97 81.658 131.413 80.885 131.479C78.5971 131.675 75.8801 128.129 74.808 126.331" stroke="white" stroke-width="2" stroke-linecap="round"/>
<path d="M81.6001 123.389C82.7419 125.213 84.7331 128.025 86.4788 129.619C86.3196 130.845 85.1219 132.708 81.6059 130.355C81.0705 128.694 78.0254 125.774 78.0254 125.595" stroke="white" stroke-width="2" stroke-linecap="round"/>
<path d="M84.698 121.673C86.8825 124.084 90.8466 129.248 89.2261 130.621C88.9388 130.864 88.5726 130.888 88.1537 130.745C87.6548 130.575 87.0815 130.17 86.4786 129.619C84.733 128.024 82.7418 125.213 81.6 123.389" stroke="white" stroke-width="2" stroke-linecap="round"/>
<path d="M66.7418 127.956C70.3958 123.38 82.0766 113.461 88.7494 119.467C91.4106 122.123 94.7272 126.923 92.8208 128.884C91.8674 129.619 89.8039 128.639 88.473 126.678" stroke="white" stroke-width="2" stroke-linecap="round"/>
<path d="M79.7592 101.859C77.4586 103.679 73.8527 108.408 77.8332 112.774" stroke="white" stroke-width="2" stroke-linecap="round"/>
</svg>
